# xmcd
#
# Track frame offsets:
#	150
#	13152
#	25607
#	39330
#	53202
#	65602
#	77232
#	90790
#	103025
#	117512
#	131452
#	145245
#	160637
#	174242
#	189227
#	201027
#	214930
#	227510
#	240617
#	252872
#	265160
#	278507
#
# Disc length: 3894 seconds
#
# Revision: 0
# Processed by: cddbd v1.4PL0 Copyright (c) Steve Scherf et al.
# Submitted via: audiograbber 1.81.03
#
DISCID=1d0f3416
DTITLE=Tampa Red - Complete Recorded Works in Chronological Order Vol. 13
DYEAR=1945
DGENRE=Blues
TTITLE0=Give Me Mine Now
TTITLE1=Better Leave My Gal Alone
TTITLE2=I'll Be Up Again Some Day
TTITLE3=I Oughta Bite You
TTITLE4=Corrine Blues
TTITLE5=Play Proof Mama
TTITLE6=Let's Try it Again
TTITLE7=Maybe, Someday
TTITLE8=Crying won't Help You
TTITLE9=Please be Careful
TTITLE10=You May be Down Someday
TTITLE11=She's a Solid Killer Diller
TTITLE12=Poor Stranger Blues
TTITLE13=New Bad Luck Blues
TTITLE14=I Know My Baby Love's Me
TTITLE15=Blue and all Alone
TTITLE16=You Better Woo Your Baby
TTITLE17=Grieving Blues
TTITLE18=Sugar Baby
TTITLE19=Keep Jumping
TTITLE20=I'll Dig You Sooner or Later
TTITLE21=Roaming and Rambling
EXTD=Complete Recorded Works in Chronological Order Vol. 13 5 july 1945 to 31 O
EXTD=ctober 1947
EXTT0=
EXTT1=
EXTT2=
EXTT3=
EXTT4=
EXTT5=
EXTT6=
EXTT7=
EXTT8=
EXTT9=
EXTT10=
EXTT11=
EXTT12=
EXTT13=
EXTT14=
EXTT15=
EXTT16=
EXTT17=
EXTT18=
EXTT19=
EXTT20=
EXTT21=
PLAYORDER=
